<svg width="974" height="104" viewBox="0 0 974 104" fill="none" xmlns="http://www.w3.org/2000/svg">
<path d="M168.619 8.28688V61.4075C168.619 67.5205 166.191 73.3831 161.871 77.7056C157.55 82.0281 151.69 84.4565 145.579 84.4565C139.469 84.4565 133.608 82.0281 129.288 77.7056C124.967 73.3831 122.539 67.5205 122.539 61.4075V0.69393H104V61.4075C104 72.4395 108.38 83.0196 116.178 90.8204C123.976 98.6212 134.551 103.004 145.579 103.004C156.607 103.004 167.183 98.6212 174.98 90.8204C182.778 83.0196 187.159 72.4395 187.159 61.4075V18.5509H211.728V103.004H230.388V18.5509H257.118L257.388 0.00366211H168.619V8.28688Z" fill="#C3002F"/>
<path d="M422.508 42H367.998V60.5472H422.508V42Z" fill="#C3002F"/>
<path d="M422.544 84.4565H368.034V103.004H422.544V84.4565Z" fill="#C3002F"/>
<path d="M422.508 0.00366211H367.998V18.5509H422.508V0.00366211Z" fill="#C3002F"/>
<path d="M481.553 2.49463C470.53 2.51051 459.963 6.89804 452.169 14.6954C444.375 22.4928 439.989 33.0637 439.973 44.0908V103.004H458.543V44.0908C458.431 40.996 458.944 37.9104 460.051 35.0182C461.158 32.1261 462.836 29.4868 464.985 27.2578C467.134 25.0289 469.71 23.2561 472.559 22.0452C475.408 20.8343 478.472 20.2103 481.568 20.2103C484.663 20.2103 487.727 20.8343 490.576 22.0452C493.425 23.2561 496.001 25.0289 498.151 27.2578C500.3 29.4868 501.978 32.1261 503.084 35.0182C504.191 37.9104 504.704 40.996 504.592 44.0908V103.004H523.132V44.0908C523.124 33.0612 518.741 22.4857 510.945 14.6866C503.149 6.88757 492.578 2.50258 481.553 2.49463Z" fill="#C3002F"/>
<path d="M358.538 0.00366211H339.998V103.004H358.538V0.00366211Z" fill="#C3002F"/>
<path d="M284.545 0.00366211H266.246V103.004H284.545V56.2755H328.795V37.7283H284.545V0.00366211Z" fill="#C3002F"/>
<path d="M532.341 14.7094H564.111V103.004H581.061V14.7094H612.89V0.00366211H532.341V14.7094Z" fill="#262729"/>
<path d="M694.849 49.0727C698.455 44.0402 700.339 37.9767 700.219 31.786C700.219 21.522 696.949 13.5389 690.529 8.0768C684.109 2.61468 674.989 0.00366211 663.5 0.00366211H628.73V103.004H645.83V63.0281H665.99L687.469 103.094H704.629V99.7924L682.219 59.2467C687.251 57.027 691.608 53.5174 694.849 49.0727ZM683.149 31.786C683.172 34.0139 682.765 36.2251 681.949 38.2985C681.19 40.2491 680 42.0033 678.469 43.4305C676.725 44.9989 674.685 46.2029 672.47 46.9719C669.706 47.9012 666.804 48.3479 663.89 48.2924H645.89V14.7094H663.56C666.607 14.6499 669.645 15.0754 672.56 15.9699C674.782 16.6647 676.829 17.8318 678.559 19.3912C680.099 20.8579 681.271 22.6677 681.979 24.6732C682.773 26.9599 683.168 29.3656 683.149 31.786Z" fill="#262729"/>
<path d="M719.059 103.004H785.898V88.388H736.068V57.2359H778.968V42.5902H736.068V14.7094H785.898V0.00366211H719.059V103.004Z" fill="#262729"/>
<path d="M865.247 72.0016L818.327 0.00366211H802.157V103.004H819.227V31.3658L866.027 103.004H882.196V0.00366211H865.247V72.0016Z" fill="#262729"/>
<path d="M970.725 28.5747C968.698 22.8682 965.523 17.6384 961.395 13.2088C957.336 8.94352 952.403 5.60609 946.935 3.42497C941.027 1.08694 934.719 -0.0752139 928.365 0.00363758H898.366V103.004H927.135C933.709 103.099 940.242 101.959 946.395 99.6423C952.006 97.5681 957.095 94.2901 961.305 90.0386C965.488 85.6458 968.697 80.4202 970.725 74.7027C972.984 68.2539 974.091 61.4576 973.995 54.6249V48.6525C974.091 41.8198 972.984 35.0235 970.725 28.5747ZM957.135 48.4425V54.4448C957.186 59.2447 956.54 64.0266 955.215 68.6403C954.084 72.5133 952.164 76.1102 949.575 79.2044C947.045 82.1311 943.873 84.4321 940.305 85.927C936.151 87.5998 931.702 88.4164 927.225 88.3279H915.466V14.7093H928.365C932.571 14.6339 936.751 15.3886 940.665 16.9302C944.137 18.3319 947.223 20.5443 949.665 23.3827C952.245 26.4555 954.156 30.0331 955.275 33.8868C956.608 38.6207 957.234 43.5254 957.135 48.4425Z" fill="#262729"/>
<path d="M38.5496 1L0 103.1H20.2198L28.3197 79.8106H65.6993L73.8592 103.1H94.139L55.5294 1H38.5496ZM59.9994 63.7844H33.8997L47.0095 26.2398L59.9994 63.7844Z" fill="#C3002F"/>
</svg>
