<svg width="158" height="25" viewBox="0 0 158 25" fill="none" xmlns="http://www.w3.org/2000/svg">
<path d="M117.809 23.4725H122.626V0.353211H117.809V23.4725ZM56.1812 7.62844C56.1812 2.86238 52.578 0.353211 47.2385 0.353211H32.4616V23.4725H37.2783V14.8761H45.6656L51.2011 23.4725H56.7366L50.7437 14.4266C54.0855 13.5275 56.1812 11.1743 56.1812 7.63303V7.62844ZM46.9771 10.9128H37.2783V4.37615H46.9771C49.7962 4.37615 51.4018 5.56881 51.4018 7.66055C51.4018 9.75229 49.7962 10.9128 46.9771 10.9128ZM88.092 4.44495H98.477V23.4725H103.326V4.44495H113.711V0.353211H88.092V4.44037V4.44495ZM73.9079 4.15138C78.0339 4.15138 80.853 6.08257 82.1972 9.33486L86.3558 7.27523C84.5542 2.73394 80.0315 0 73.8752 0C65.9127 0 59.9851 5.05505 59.9851 11.9128C59.9851 18.7706 65.9127 23.8257 73.8752 23.8257C80.0362 23.8257 84.5542 21.0872 86.3558 16.5505L82.1972 14.4908C80.853 17.7431 78.0385 19.6743 73.9079 19.6743C68.7645 19.6743 64.8999 16.5826 64.8999 11.9128C64.8999 7.24312 68.7645 4.15138 73.9079 4.15138ZM28.8304 22.6468L17.3906 0.353211H11.9858L0.55075 22.6468C0.359388 22.9174 0.172693 23.1927 0 23.4725H0.126019H5.26947H5.35815C7.7105 21.055 11.0197 19.5505 14.6882 19.5505C18.3568 19.5505 21.6706 21.0596 24.0183 23.4725H24.0417H29.2504H29.3765C29.1991 23.1927 29.0171 22.9174 28.8257 22.6468H28.8304ZM14.6882 15.3716C12.6533 15.3716 10.6976 15.7248 8.88668 16.367L10.0535 14.0734L14.6742 5.02752L19.2623 14.0734L20.4244 16.344C18.6275 15.7202 16.6999 15.3761 14.6929 15.3761L14.6882 15.3716ZM152.058 18.7752C153.552 16.867 154.401 14.5229 154.401 11.9128C154.401 5.05505 148.539 0 140.511 0C132.483 0 126.621 5.05505 126.621 11.9128C126.621 18.7706 132.451 23.8257 140.511 23.8257C143.386 23.8257 145.977 23.1743 148.128 22.0275C150.99 23.4862 154.042 24.4862 157.249 25L158 20.4725C155.942 20.1422 153.953 19.5688 152.058 18.7752ZM140.511 19.6743C135.237 19.6743 131.569 16.5826 131.569 11.9128C131.569 7.24312 135.237 4.15138 140.511 4.15138C145.785 4.15138 149.454 7.24312 149.454 11.9128C149.454 16.5826 145.785 19.6743 140.511 19.6743Z" fill="white"/>
</svg>
